<?xml version="1.0" encoding="UTF-8" standalone="no"?>
<!-- Generator: Adobe Illustrator 21.0.2, SVG Export Plug-In . SVG Version: 6.00 Build 0)  -->

<svg
   version="1.1"
   x="0px"
   y="0px"
   viewBox="0 0 42.709 42.708999"
   xml:space="preserve"
   id="svg38"
   sodipodi:docname="reshot-icon-algorithm-9F46JCG3XD.svg"
   width="42.709"
   height="42.709"
   inkscape:version="1.2.1 (9c6d41e410, 2022-07-14)"
   inkscape:export-filename="google-touch-icon.png"
   inkscape:export-xdpi="404.60001"
   inkscape:export-ydpi="404.60001"
   xmlns:inkscape="http://www.inkscape.org/namespaces/inkscape"
   xmlns:sodipodi="http://sodipodi.sourceforge.net/DTD/sodipodi-0.dtd"
   xmlns="http://www.w3.org/2000/svg"
   xmlns:svg="http://www.w3.org/2000/svg"
   xmlns:rdf="http://www.w3.org/1999/02/22-rdf-syntax-ns#"
   xmlns:cc="http://creativecommons.org/ns#"><defs
   id="defs42">
	
</defs><sodipodi:namedview
   id="namedview40"
   pagecolor="#ffffff"
   bordercolor="#666666"
   borderopacity="1.0"
   inkscape:showpageshadow="2"
   inkscape:pageopacity="0.0"
   inkscape:pagecheckerboard="0"
   inkscape:deskcolor="#d1d1d1"
   showgrid="false"
   inkscape:zoom="14.75"
   inkscape:cx="20.847458"
   inkscape:cy="20.440678"
   inkscape:window-width="1920"
   inkscape:window-height="991"
   inkscape:window-x="-9"
   inkscape:window-y="-9"
   inkscape:window-maximized="1"
   inkscape:current-layer="g28"
   showborder="false"
   shape-rendering="auto" />
<g
   id="css"
   transform="translate(-9.7643446,-12.29415)">
</g>
<g
   id="mobile_development"
   transform="translate(-9.7643446,-12.29415)">
</g>
<g
   id="code"
   transform="translate(-9.7643446,-12.29415)">
</g>
<g
   id="hardware_programming"
   transform="translate(-9.7643446,-12.29415)">
</g>
<g
   id="python"
   transform="translate(-9.7643446,-12.29415)">
</g>
<g
   id="development"
   transform="translate(-9.7643446,-12.29415)">
</g>
<g
   id="update"
   transform="translate(-9.7643446,-12.29415)">
</g>
<g
   id="maintenance"
   transform="translate(-9.7643446,-12.29415)">
</g>
<g
   id="peformance_testing"
   transform="translate(-9.7643446,-12.29415)">
</g>
<g
   id="programming"
   transform="translate(-9.7643446,-12.29415)">
</g>
<g
   id="hacker"
   transform="translate(-9.7643446,-12.29415)">
</g>
<g
   id="web_programming"
   transform="translate(-9.7643446,-12.29415)">
</g>
<g
   id="html"
   transform="translate(-9.7643446,-12.29415)">
</g>
<g
   id="typing"
   transform="translate(-9.7643446,-12.29415)">
</g>
<g
   id="search_1_"
   transform="translate(-9.7643446,-12.29415)">
</g>
<g
   id="android"
   transform="translate(-9.7643446,-12.29415)">
</g>
<g
   id="coding"
   transform="translate(-9.7643446,-12.29415)">
</g>
<g
   id="file"
   transform="translate(-9.7643446,-12.29415)">
</g>
<g
   id="api"
   transform="translate(-9.7643446,-12.29415)">
</g>
<g
   id="java"
   transform="translate(-9.7643446,-12.29415)">
</g>
<g
   id="xml"
   transform="translate(-9.7643446,-12.29415)">
</g>
<g
   id="security"
   transform="translate(-9.7643446,-12.29415)">
</g>
<g
   id="g28"
   transform="translate(-9.7643446,-12.29415)">
		
		
	<path
   d="m 10.764245,28.96795 h 3.3334 l 0.401,7.4111 c 0.0288,0.5303 0.4673,0.9458 0.9985,0.9458 h 10.8404 l -0.462,0.936 c -0.1528,0.3096 -0.1348,0.6768 0.0479,0.9702 0.1821,0.2935 0.5034,0.4722 0.8491,0.4722 h 3.2808 v 3.2085 h -0.8989 c -1.8647,0 -3.3818,1.5171 -3.3818,3.3818 0,1.8628 1.5171,3.3784 3.3818,3.3784 h 3.8018 c 1.8628,0 3.3784,-1.5156 3.3784,-3.3784 0,-1.8647 -1.5156,-3.3818 -3.3784,-3.3818 h -0.9028 v -3.2085 h 0.9336 c 0.3809,0 0.7285,-0.2163 0.897,-0.5576 l 0.8986,-1.8208 h 12.4095 c 0.5522,0 1,-0.4478 1,-1 v -7.3569 h 3.2808 c 0.5522,0 1,-0.4478 1,-1 v -4.7568 c 0,-0.5522 -0.4478,-1 -1,-1 h -8.5586 c -0.5522,0 -1,0.4478 -1,1 v 1.3784 h -6.9664 l -2.8945,-2.8941 v -2.6411 h 0.9028 c 1.8628,0 3.3784,-1.5156 3.3784,-3.3784 0,-1.8647 -1.5156,-3.3818 -3.3784,-3.3818 h -3.8018 c -1.8647,0 -3.3818,1.5171 -3.3818,3.3818 0,1.8628 1.5171,3.3784 3.3818,3.3784 h 0.8989 v 2.6414 l -2.8909,2.8937 h -6.8361 v -1.3784 c 0,-0.5522 -0.4478,-1 -1,-1 h -8.562 c -0.5522,0 -1.0000004,0.4478 -1.0000004,1 v 4.7568 c -10e-5,0.5523 0.4477004,1.0001 0.9999004,1.0001 z m 23.5704,17.3257 c 0,0.7603 -0.6182,1.3784 -1.3784,1.3784 h -3.8018 c -0.7617,0 -1.3818,-0.6182 -1.3818,-1.3784 0,-0.7617 0.6201,-1.3818 1.3818,-1.3818 h 3.8018 c 0.7602,-1e-4 1.3784,0.62 1.3784,1.3818 z m -6.5621,-30.6177 c 0,-0.7617 0.6201,-1.3818 1.3818,-1.3818 h 3.8018 c 0.7603,0 1.3784,0.6201 1.3784,1.3818 0,0.7603 -0.6182,1.3784 -1.3784,1.3784 h -3.8018 c -0.7616,0 -1.3818,-0.6182 -1.3818,-1.3784 z m 4.5928,22.0273 h -3.9839 l 1.3604,-2.7568 h 3.9839 z m 11.5488,-13.4922 h 6.5586 v 2.7568 h -6.5586 z m -1,4.7569 h 3.2778 v 6.3569 h -10.4223 l 0.462,-0.936 c 0.1528,-0.3096 0.1348,-0.6768 -0.0479,-0.9702 -0.1821,-0.2935 -0.5034,-0.4722 -0.8491,-0.4722 h -3.2813 v -3.4655 l 2.8942,-2.8914 h 6.9666 v 1.3784 c 0,0.5522 0.4478,1 1,1 z m -11.8603,-5.4439 2.0654,2.0649 -2.0654,2.0635 -2.0635,-2.0635 z m -3.8912,3.0655 2.8907,2.8911 v 3.4659 h -0.9331 c -0.3809,0 -0.7285,0.2163 -0.897,0.5576 l -0.8986,1.8208 h -10.8802 l -0.3439,-6.3569 h 3.2257 c 0.5522,0 1,-0.4478 1,-1 v -1.3785 z m -15.3984,-2.3785 h 6.562 v 2.7568 h -6.562 z"
   id="path24" /></g>
<g
   id="php"
   transform="translate(-9.7643446,-12.29415)">
</g>
<g
   id="eror"
   transform="translate(-9.7643446,-12.29415)">
</g>
<g
   id="bug"
   transform="translate(-9.7643446,-12.29415)">
</g>
<g
   id="c_x2B__x2B_"
   transform="translate(-9.7643446,-12.29415)">
</g>
<g
   id="search"
   transform="translate(-9.7643446,-12.29415)">
</g>
<g
   id="binary"
   transform="translate(-9.7643446,-12.29415)">
</g>
<g
   id="database_sql"
   transform="translate(-9.7643446,-12.29415)">
</g>
<metadata
   id="metadata384"><rdf:RDF><cc:Work
       rdf:about=""><cc:license
         rdf:resource="http://creativecommons.org/licenses/by/4.0/" /></cc:Work><cc:License
       rdf:about="http://creativecommons.org/licenses/by/4.0/"><cc:permits
         rdf:resource="http://creativecommons.org/ns#Reproduction" /><cc:permits
         rdf:resource="http://creativecommons.org/ns#Distribution" /><cc:requires
         rdf:resource="http://creativecommons.org/ns#Notice" /><cc:requires
         rdf:resource="http://creativecommons.org/ns#Attribution" /><cc:permits
         rdf:resource="http://creativecommons.org/ns#DerivativeWorks" /></cc:License></rdf:RDF></metadata></svg>
